# xmcd
#
# Track frame offsets:
#	150
#	19942
#	36487
#	53696
#	65254
#	80672
#	91982
#	106123
#
# Disc length: 1568 seconds
#
# Revision: 1
# Processed by: cddbd v1.4PL0 Copyright (c) Steve Scherf et al.
# Submitted via: EasyCDDAExtractor 5.0.7
#
DISCID=5f061e08
DTITLE=Arwen and Frits Linnemann - Attic Blues
DYEAR=2002
DGENRE=Country Blues
TTITLE0=Hello Little Schoolgirl
TTITLE1=It Hurts me too
TTITLE2=Terraplane Blues
TTITLE3=Police Dog Blues
TTITLE4=Old Jim Cannan's
TTITLE5=Key to the Highway
TTITLE6=Love in Vain
TTITLE7=When you're down and out
EXTD=
EXTT0=
EXTT1=
EXTT2=
EXTT3=
EXTT4=
EXTT5=
EXTT6=
EXTT7=
PLAYORDER=
